<svg width="44" height="34" viewBox="0 0 44 34" fill="none" xmlns="http://www.w3.org/2000/svg">
<path d="M1.625 15.5C1.19402 15.5 0.780698 15.658 0.475951 15.9393C0.171205 16.2206 0 16.6022 0 17C0 17.3978 0.171205 17.7794 0.475951 18.0607C0.780698 18.342 1.19402 18.5 1.625 18.5H13V15.5H1.625Z" fill="#4C4C4C"/>
<path d="M13 5.75V15.5H27.8577L22.7543 10.5603C22.4759 10.2767 22.323 9.89909 22.3282 9.50795C22.3334 9.11681 22.4962 8.7431 22.782 8.4665C23.0679 8.18989 23.454 8.03229 23.8582 8.02728C24.2624 8.02227 24.6526 8.17026 24.9457 8.43969L32.6957 15.9397C32.9861 16.221 33.1493 16.6023 33.1493 17C33.1493 17.3977 32.9861 17.779 32.6957 18.0603L24.9457 25.5603C24.6526 25.8297 24.2624 25.9777 23.8582 25.9727C23.454 25.9677 23.0679 25.8101 22.782 25.5335C22.4962 25.2569 22.3334 24.8832 22.3282 24.4921C22.323 24.1009 22.4759 23.7233 22.7543 23.4397L27.8577 18.5H13V28.25C13.0015 29.6419 13.5736 30.9764 14.5906 31.9607C15.6077 32.9449 16.9867 33.4985 18.425 33.5H38.575C40.0133 33.4985 41.3923 32.9449 42.4094 31.9607C43.4264 30.9764 43.9985 29.6419 44 28.25V5.75C43.9985 4.35807 43.4264 3.02358 42.4094 2.03933C41.3923 1.05509 40.0133 0.501489 38.575 0.5H18.425C16.9867 0.501489 15.6077 1.05509 14.5906 2.03933C13.5736 3.02358 13.0015 4.35807 13 5.75Z" fill="#4C4C4C"/>
</svg>
