<svg width="29" height="15" viewBox="0 0 29 15" fill="none" xmlns="http://www.w3.org/2000/svg">
<path d="M27.4587 14.4264C27.0648 14.7937 26.5307 15 25.9737 15C25.4168 15 24.8826 14.7937 24.4887 14.4264L14.0914 4.72885L3.69414 14.4264C3.29799 14.7833 2.76741 14.9807 2.21667 14.9763C1.66594 14.9718 1.13912 14.7658 0.749678 14.4025C0.360235 14.0393 0.139334 13.5479 0.134548 13.0343C0.129763 12.5206 0.341476 12.0257 0.724092 11.6562L12.6064 0.573599C13.0003 0.206325 13.5345 0 14.0914 0C14.6484 0 15.1825 0.206325 15.5764 0.573599L27.4587 11.6562C27.8525 12.0236 28.0737 12.5218 28.0737 13.0413C28.0737 13.5608 27.8525 14.059 27.4587 14.4264Z" fill="#4C4C4C"/>
</svg>
