<svg width="36" height="36" viewBox="0 0 36 36" fill="none" xmlns="http://www.w3.org/2000/svg">
<path fill-rule="evenodd" clip-rule="evenodd" d="M10.9105 8.53716C10.9103 8.52881 10.9102 8.52045 10.9102 8.51205V6.8253C10.9102 3.33193 14.0845 0.5 18 0.5C21.9157 0.5 25.0898 3.33193 25.0898 6.8253V8.51205C25.0898 8.52045 25.0896 8.52881 25.0894 8.53716C27.5232 8.60234 29.0124 8.83658 30.1492 9.67838C31.7245 10.8447 32.1393 12.819 32.9692 16.7675L34.3872 23.5145C35.5541 29.0667 36.1373 31.8428 34.4363 33.6714C32.7354 35.5 29.5696 35.5 23.2377 35.5H12.7622C6.43048 35.5 3.26461 35.5 1.56362 33.6714C-0.137388 31.8428 0.446051 29.0667 1.61291 23.5145L3.03086 16.7675C3.86066 12.819 4.27557 10.8447 5.85078 9.67838C6.98769 8.83658 8.47684 8.60234 10.9105 8.53716ZM13.7461 6.8253C13.7461 4.72928 15.6506 3.03012 18 3.03012C20.3493 3.03012 22.2539 4.72928 22.2539 6.8253V8.51205C22.2539 8.51203 22.2539 8.51206 22.2539 8.51205C22.1115 8.51201 21.9669 8.51205 21.8198 8.51205H14.1802C14.0331 8.51205 13.8885 8.51205 13.7461 8.51208V6.8253Z" fill="#4C4C4C"/>
</svg>
