<svg width="24" height="17" viewBox="0 0 24 17" fill="none" xmlns="http://www.w3.org/2000/svg">
<path fill-rule="evenodd" clip-rule="evenodd" d="M24 1.21429C24 1.53633 23.8595 1.84519 23.6095 2.07292C23.3594 2.30064 23.0203 2.42857 22.6667 2.42857H1.33333C0.979711 2.42857 0.640573 2.30064 0.390524 2.07292C0.140476 1.84519 0 1.53633 0 1.21429C0 0.892237 0.140476 0.583379 0.390524 0.355656C0.640573 0.127933 0.979711 0 1.33333 0H22.6667C23.0203 0 23.3594 0.127933 23.6095 0.355656C23.8595 0.583379 24 0.892237 24 1.21429ZM24 8.5C24 8.82205 23.8595 9.13091 23.6095 9.35863C23.3594 9.58635 23.0203 9.71429 22.6667 9.71429H1.33333C0.979711 9.71429 0.640573 9.58635 0.390524 9.35863C0.140476 9.13091 0 8.82205 0 8.5C0 8.17795 0.140476 7.86909 0.390524 7.64137C0.640573 7.41365 0.979711 7.28571 1.33333 7.28571H22.6667C23.0203 7.28571 23.3594 7.41365 23.6095 7.64137C23.8595 7.86909 24 8.17795 24 8.5ZM22.6667 17C23.0203 17 23.3594 16.8721 23.6095 16.6443C23.8595 16.4166 24 16.1078 24 15.7857C24 15.4637 23.8595 15.1548 23.6095 14.9271C23.3594 14.6994 23.0203 14.5714 22.6667 14.5714H1.33333C0.979711 14.5714 0.640573 14.6994 0.390524 14.9271C0.140476 15.1548 0 15.4637 0 15.7857C0 16.1078 0.140476 16.4166 0.390524 16.6443C0.640573 16.8721 0.979711 17 1.33333 17H22.6667Z" fill="#4C4C4C"/>
</svg>
