<svg width="21" height="20" viewBox="0 0 21 20" fill="none" xmlns="http://www.w3.org/2000/svg">
<path d="M15.359 0.000244141C15.0053 0.000248353 14.6661 0.140685 14.416 0.39066C14.1658 0.640635 14.0253 0.979672 14.0253 1.33319V2.00031H2.02611C1.67239 2.00031 1.33316 2.14074 1.08304 2.3907C0.83292 2.64066 0.692397 2.97968 0.692383 3.33319C0.692381 3.50823 0.726878 3.68156 0.793903 3.84328C0.860928 4.005 0.959169 4.15194 1.08302 4.27571C1.20686 4.39949 1.35389 4.49767 1.51571 4.56466C1.67752 4.63165 1.85096 4.66613 2.02611 4.66613H14.0253V5.33403C14.0253 5.68755 14.1658 6.02658 14.416 6.27656C14.6661 6.52653 15.0053 6.66697 15.359 6.66698C15.7128 6.66697 16.052 6.52653 16.3021 6.27656C16.5523 6.02658 16.6928 5.68755 16.6928 5.33403V4.66613H19.3586C19.5337 4.66614 19.7072 4.63166 19.869 4.56468C20.0308 4.4977 20.1779 4.39951 20.3017 4.27574C20.4256 4.15196 20.5238 4.00502 20.5909 3.84329C20.6579 3.68157 20.6924 3.50823 20.6924 3.33319C20.6924 3.15814 20.6579 2.98482 20.5908 2.8231C20.5238 2.66138 20.4256 2.51445 20.3017 2.39068C20.1778 2.26691 20.0308 2.16873 19.869 2.10175C19.7072 2.03477 19.5337 2.0003 19.3586 2.00031H16.6928V1.33319C16.6928 0.979672 16.5523 0.640635 16.3021 0.39066C16.052 0.140685 15.7128 0.000248353 15.359 0.000244141ZM5.69238 6.66691C5.51723 6.6669 5.34379 6.70138 5.18197 6.76836C5.02014 6.83534 4.87311 6.93353 4.74925 7.0573C4.6254 7.18108 4.52715 7.32802 4.46012 7.48975C4.39309 7.65147 4.35859 7.8248 4.35859 7.99985V8.66691H2.0265C1.85135 8.66691 1.67792 8.70139 1.5161 8.76838C1.35428 8.83537 1.20725 8.93355 1.08341 9.05732C0.959559 9.1811 0.861318 9.32804 0.794293 9.48976C0.727268 9.65148 0.692772 9.82481 0.692773 9.99985C0.692772 10.1749 0.727268 10.3482 0.794293 10.5099C0.861318 10.6717 0.959559 10.8186 1.08341 10.9424C1.20725 11.0662 1.35428 11.1643 1.5161 11.2313C1.67792 11.2983 1.85135 11.3328 2.0265 11.3328H4.35859V12.0007C4.35859 12.1757 4.39309 12.3491 4.46012 12.5108C4.52715 12.6725 4.6254 12.8195 4.74925 12.9432C4.87311 13.067 5.02014 13.1652 5.18197 13.2322C5.34379 13.2992 5.51723 13.3336 5.69238 13.3336C6.04611 13.3336 6.38535 13.1932 6.63547 12.9432C6.88559 12.6933 7.02611 12.3542 7.02611 12.0007V11.3328H19.3591C19.5342 11.3328 19.7076 11.2983 19.8694 11.2313C20.0313 11.1643 20.1783 11.0662 20.3021 10.9424C20.426 10.8186 20.5242 10.6717 20.5913 10.5099C20.6583 10.3482 20.6928 10.1749 20.6928 9.99985C20.6928 9.82481 20.6583 9.65148 20.5913 9.48976C20.5242 9.32804 20.426 9.1811 20.3021 9.05732C20.1783 8.93355 20.0313 8.83537 19.8694 8.76838C19.7076 8.70139 19.5342 8.66691 19.3591 8.66691H7.02611V7.99985C7.02611 7.64634 6.88559 7.3073 6.63547 7.05733C6.38535 6.80735 6.04611 6.66691 5.69238 6.66691ZM10.0257 13.3336C9.672 13.3336 9.33277 13.4741 9.08265 13.724C8.83253 13.974 8.69201 14.313 8.69199 14.6665V15.3336H2.0265C1.85135 15.3336 1.67792 15.3681 1.5161 15.435C1.35428 15.502 1.20725 15.6002 1.08341 15.724C0.959559 15.8478 0.861318 15.9947 0.794293 16.1564C0.727268 16.3181 0.692772 16.4915 0.692773 16.6665C0.692787 17.02 0.83331 17.359 1.08343 17.609C1.33355 17.859 1.67278 17.9994 2.0265 17.9994H8.69199V18.6674C8.69201 19.0209 8.83253 19.3599 9.08265 19.6098C9.33277 19.8598 9.672 20.0002 10.0257 20.0002C10.3794 20.0002 10.7187 19.8598 10.9688 19.6098C11.2189 19.3599 11.3594 19.0209 11.3594 18.6674V17.9994H19.3591C19.7128 17.9994 20.052 17.859 20.3021 17.609C20.5522 17.359 20.6928 17.02 20.6928 16.6665C20.6928 16.4915 20.6583 16.3181 20.5913 16.1564C20.5242 15.9947 20.426 15.8478 20.3021 15.724C20.1783 15.6002 20.0313 15.502 19.8694 15.435C19.7076 15.3681 19.5342 15.3336 19.3591 15.3336H11.3594V14.6665C11.3594 14.313 11.2189 13.974 10.9688 13.724C10.7187 13.4741 10.3794 13.3336 10.0257 13.3336Z" fill="black"/>
</svg>
