<svg width="29" height="50" viewBox="0 0 29 50" fill="none" xmlns="http://www.w3.org/2000/svg">
<path d="M27.6142 1.09795C28.3172 1.80118 28.7122 2.75483 28.7122 3.7492C28.7122 4.74356 28.3172 5.69722 27.6142 6.40045L9.05171 24.9629L27.6142 43.5255C28.2973 44.2327 28.6753 45.18 28.6667 46.1632C28.6582 47.1464 28.2638 48.087 27.5685 48.7823C26.8732 49.4776 25.9327 49.8719 24.9495 49.8805C23.9662 49.889 23.019 49.511 22.3117 48.8279L1.09796 27.6142C0.394941 26.911 7.62939e-06 25.9573 7.62939e-06 24.9629C7.62939e-06 23.9686 0.394941 23.0149 1.09796 22.3117L22.3117 1.09795C23.0149 0.394933 23.9686 0 24.963 0C25.9573 0 26.911 0.394933 27.6142 1.09795Z" fill="#4C4C4C"/>
</svg>
