<svg width="154" height="112" viewBox="0 0 154 112" fill="none" xmlns="http://www.w3.org/2000/svg">
<path d="M1.02 100.959L2.176 94.2274C4.66933 94.8394 6.92467 95.1454 8.942 95.1454C9.962 95.1454 10.8573 95.1341 11.628 95.1114C12.4213 95.0661 13.124 94.9981 13.736 94.9074V92.8674L10.064 92.5614C8.40933 92.4027 7.02667 92.1307 5.916 91.7454C4.80533 91.3601 3.91 90.8387 3.23 90.1814C2.57267 89.5014 2.09667 88.6967 1.802 87.7674C1.53 86.8154 1.394 85.7047 1.394 84.4354C1.394 82.6901 1.57533 81.2394 1.938 80.0834C2.30067 78.9047 2.87867 77.9641 3.672 77.2614C4.46533 76.5361 5.48533 76.0261 6.732 75.7314C8.00133 75.4367 9.54267 75.2894 11.356 75.2894C14.96 75.2894 18.224 75.6294 21.148 76.3094L20.128 82.8374C17.5893 82.4294 15.5607 82.2254 14.042 82.2254C12.5233 82.2254 11.2313 82.2934 10.166 82.4294V84.4354L13.09 84.7074C14.8807 84.8887 16.3767 85.1947 17.578 85.6254C18.7793 86.0334 19.7427 86.5774 20.468 87.2574C21.216 87.9374 21.7373 88.7421 22.032 89.6714C22.3493 90.6007 22.508 91.6661 22.508 92.8674C22.508 94.5901 22.2813 96.0407 21.828 97.2194C21.3747 98.3981 20.8307 99.2934 20.196 99.9054C19.6747 100.404 19.0287 100.801 18.258 101.095C17.4873 101.367 16.6713 101.571 15.81 101.707C14.9487 101.843 14.076 101.923 13.192 101.945C12.3307 101.991 11.5487 102.013 10.846 102.013C9.078 102.013 7.378 101.923 5.746 101.741C4.114 101.56 2.53867 101.299 1.02 100.959ZM45.981 101.401H37.175L34.013 93.3094H33.741V101.401H25.581V74.8814L33.741 74.2694V87.7334H34.013L36.971 81.0014H45.777L41.051 90.7254L45.981 101.401ZM56.5848 101.401H48.4248V82.0214L56.5848 81.0014V101.401ZM47.9828 77.1594C47.9828 76.5474 48.0508 76.0374 48.1868 75.6294C48.3228 75.1987 48.5608 74.8587 48.9008 74.6094C49.2408 74.3374 49.7054 74.1447 50.2948 74.0314C50.8841 73.9181 51.6321 73.8614 52.5388 73.8614C53.4454 73.8614 54.1821 73.9181 54.7488 74.0314C55.3381 74.1447 55.8028 74.3374 56.1428 74.6094C56.4828 74.8587 56.7208 75.1987 56.8568 75.6294C56.9928 76.0374 57.0608 76.5474 57.0608 77.1594C57.0608 77.7714 56.9928 78.2814 56.8568 78.6894C56.7208 79.0974 56.4828 79.4374 56.1428 79.7094C55.8028 79.9587 55.3381 80.1401 54.7488 80.2534C54.1821 80.3441 53.4454 80.3894 52.5388 80.3894C51.8814 80.3894 51.2694 80.3667 50.7028 80.3214C50.1588 80.2761 49.6828 80.1514 49.2748 79.9474C48.8668 79.7207 48.5494 79.3921 48.3228 78.9614C48.0961 78.5307 47.9828 77.9301 47.9828 77.1594ZM73.7327 93.8874V92.7994H71.6587V86.5434H81.4847V100.177C78.2661 101.401 74.9227 102.013 71.4547 102.013C69.0747 102.013 67.1027 101.73 65.5387 101.163C63.9974 100.597 62.7734 99.7581 61.8667 98.6474C60.9601 97.5141 60.3254 96.1201 59.9627 94.4654C59.6227 92.7881 59.4527 90.8387 59.4527 88.6174C59.4527 86.2601 59.6681 84.2427 60.0987 82.5654C60.5294 80.8654 61.2434 79.4827 62.2407 78.4174C63.2381 77.3294 64.5641 76.5361 66.2187 76.0374C67.8734 75.5387 69.9247 75.2894 72.3727 75.2894C72.9167 75.2894 73.5514 75.3234 74.2767 75.3914C75.0247 75.4367 75.7727 75.5161 76.5207 75.6294C77.2687 75.7201 77.9714 75.8334 78.6287 75.9694C79.3087 76.0827 79.8527 76.2074 80.2607 76.3434L79.0367 82.5994C77.9261 82.4181 76.8721 82.2821 75.8747 82.1914C74.8774 82.0781 73.9481 82.0214 73.0867 82.0214C71.2961 82.0214 70.0381 82.1574 69.3127 82.4294C68.5874 82.7014 68.2247 83.2454 68.2247 84.0614V95.6214H70.9107C71.9081 95.6214 72.6221 95.5194 73.0527 95.3154C73.5061 95.0887 73.7327 94.6127 73.7327 93.8874ZM93.1034 94.4654V95.8934C93.5114 95.9387 93.9194 95.9727 94.3274 95.9954C94.7354 96.0181 95.1434 96.0294 95.5514 96.0294C98.0901 96.0294 100.651 95.6214 103.235 94.8054L104.187 100.789C101.127 101.605 98.1128 102.013 95.1434 102.013C91.3354 102.013 88.5814 101.129 86.8814 99.3614C85.1814 97.5707 84.3314 94.8507 84.3314 91.2014C84.3314 87.5521 85.1814 84.8434 86.8814 83.0754C88.6041 81.2847 91.3581 80.3894 95.1434 80.3894C97.0474 80.3894 98.6341 80.5141 99.9034 80.7634C101.173 80.9901 102.193 81.3867 102.963 81.9534C103.757 82.4974 104.312 83.2454 104.629 84.1974C104.969 85.1267 105.139 86.3054 105.139 87.7334C105.139 88.9121 104.935 89.9321 104.527 90.7934C104.142 91.6321 103.485 92.3234 102.555 92.8674C101.626 93.4114 100.391 93.8194 98.8494 94.0914C97.3081 94.3407 95.3928 94.4654 93.1034 94.4654ZM93.1034 88.0734V89.7394H94.7694C95.7668 89.7394 96.4808 89.6374 96.9114 89.4334C97.3648 89.2294 97.5914 88.7534 97.5914 88.0054V86.3394H95.9254C94.9281 86.3394 94.2028 86.4414 93.7494 86.6454C93.3188 86.8494 93.1034 87.3254 93.1034 88.0734ZM117.846 80.3894C124.374 80.3894 127.638 82.6334 127.638 87.1214V101.401H123.558L121.246 99.0894C120.838 99.5427 120.351 99.9507 119.784 100.313C119.24 100.676 118.651 100.982 118.016 101.231C117.382 101.481 116.736 101.673 116.078 101.809C115.421 101.945 114.786 102.013 114.174 102.013C113.018 102.013 111.976 101.889 111.046 101.639C110.14 101.413 109.369 101.039 108.734 100.517C108.1 99.9961 107.612 99.3047 107.272 98.4434C106.932 97.5821 106.762 96.5281 106.762 95.2814C106.762 90.3854 110.457 87.9374 117.846 87.9374H119.478V86.4754C119.048 86.4527 118.651 86.4301 118.288 86.4074C117.948 86.3847 117.631 86.3734 117.336 86.3734C114.276 86.3734 111.636 86.7474 109.414 87.4954L108.428 81.6474C111.148 80.8087 114.288 80.3894 117.846 80.3894ZM114.99 94.3974V96.0634H116.69C117.869 96.0634 118.64 95.9274 119.002 95.6554C119.32 95.3607 119.478 95.0094 119.478 94.6014V92.6634H117.812C116.838 92.6634 116.124 92.7654 115.67 92.9694C115.217 93.1734 114.99 93.6494 114.99 94.3974ZM131.3 101.401V81.0014H135.38L137.624 83.2794C139.256 81.7834 141.273 80.8201 143.676 80.3894L144.152 88.1074C143.834 88.1074 143.449 88.1527 142.996 88.2434C142.542 88.3341 142.078 88.4474 141.602 88.5834C141.148 88.7194 140.729 88.8894 140.344 89.0934C139.958 89.2747 139.664 89.4901 139.46 89.7394V101.401H131.3Z" fill="#4C4C4C"/>
<path d="M108 34C108 52.7777 92.7777 68 74 68C55.2223 68 40 52.7777 40 34C40 15.2223 55.2223 7.62939e-06 74 7.62939e-06C92.7777 7.62939e-06 108 15.2223 108 34Z" fill="#0064AC"/>
<path d="M60.2605 56.171L59.1763 55.3946C58.9277 55.8436 58.9134 56.4107 59.1388 56.8752C59.3643 57.3398 59.794 57.6281 60.2605 57.6281V56.171ZM74.7813 29.9427L73.7652 29.055C73.7411 29.0909 73.7182 29.128 73.697 29.1663L74.7813 29.9427ZM78.1979 29.9427L79.2822 29.1663C79.261 29.128 79.2383 29.0909 79.214 29.055L78.1979 29.9427ZM92.7187 56.171V57.6281C93.1853 57.6281 93.6149 57.3398 93.8404 56.8752C94.0659 56.4107 94.0516 55.8436 93.803 55.3946L92.7187 56.171ZM61.3447 56.9473L75.8656 30.719L73.697 29.1663L59.1763 55.3946L61.3447 56.9473ZM75.7974 30.8304C75.8789 30.7097 75.9838 30.612 76.1037 30.5446L74.9709 27.9306C74.4985 28.1953 74.086 28.58 73.7652 29.055L75.7974 30.8304ZM76.1037 30.5446C76.2238 30.4773 76.3558 30.4424 76.4896 30.4424V27.5281C75.9629 27.5281 75.4434 27.6658 74.9709 27.9306L76.1037 30.5446ZM76.4896 30.4424C76.6234 30.4424 76.7554 30.4773 76.8755 30.5446L78.0083 27.9306C77.5358 27.6658 77.0163 27.5281 76.4896 27.5281V30.4424ZM76.8755 30.5446C76.9956 30.612 77.1003 30.7097 77.1818 30.8304L79.214 29.055C78.8932 28.58 78.4807 28.1953 78.0083 27.9306L76.8755 30.5446ZM77.1137 30.719L91.6344 56.9473L93.803 55.3946L79.2822 29.1663L77.1137 30.719ZM92.7187 54.7138H60.2605V57.6281H92.7187V54.7138Z" fill="white"/>
<path d="M60.2604 57.6281C60.968 57.6281 61.5416 56.9757 61.5416 56.1709C61.5416 55.3662 60.968 54.7138 60.2604 54.7138V57.6281ZM54.2812 56.1709L53.1612 55.4634C52.9408 55.9147 52.9468 56.4649 53.177 56.9098C53.4072 57.3549 53.8273 57.6281 54.2812 57.6281L54.2812 56.1709ZM60.6875 43.0568L61.7124 42.1823C61.4518 41.7873 61.0332 41.5694 60.6001 41.603C60.1669 41.6368 59.7783 41.9175 59.5675 42.3492L60.6875 43.0568ZM63.3782 49.5635C63.8029 50.2072 64.606 50.3376 65.172 49.8546C65.738 49.3716 65.8526 48.4583 65.428 47.8146L63.3782 49.5635ZM60.2604 54.7138H54.2812L54.2812 57.6281H60.2604V54.7138ZM55.4013 56.8785L61.8075 43.7644L59.5675 42.3492L53.1612 55.4634L55.4013 56.8785ZM59.6626 43.9313L63.3782 49.5635L65.428 47.8146L61.7124 42.1823L59.6626 43.9313Z" fill="white"/>
<path d="M68.6871 41.3253C68.1454 40.8076 67.3372 40.8874 66.882 41.5035C66.4267 42.1196 66.4969 43.0387 67.0386 43.5565L68.6871 41.3253ZM71.874 46.2741L72.7017 45.1619L72.6983 45.1586L71.874 46.2741ZM81.1058 46.2741L80.2816 45.1586L80.278 45.1621L81.1058 46.2741ZM85.9413 43.5565C86.483 43.0387 86.5532 42.1196 86.0979 41.5035C85.6426 40.8874 84.8344 40.8076 84.2927 41.3253L85.9413 43.5565ZM67.0386 43.5565L71.0498 47.3897L72.6983 45.1586L68.6871 41.3253L67.0386 43.5565ZM71.0462 47.3864C71.6186 47.9374 72.3522 48.2236 73.1013 48.1882L72.9954 45.2765C72.8883 45.2815 72.7836 45.2406 72.7017 45.1619L71.0462 47.3864ZM73.1013 48.1882C73.8506 48.1531 74.5607 47.7989 75.0912 47.196L73.2797 45.1349C73.2038 45.2209 73.1025 45.2714 72.9954 45.2765L73.1013 48.1882ZM75.0912 47.196L76.1888 45.9456L74.3762 43.8856L73.2797 45.1349L75.0912 47.196ZM76.1888 45.9456C76.2689 45.8547 76.3767 45.8044 76.4899 45.8044V42.8901C75.6973 42.8901 74.9369 43.2482 74.3762 43.8856L76.1888 45.9456ZM76.4899 45.8044C76.6032 45.8044 76.7119 45.8557 76.7918 45.9466L78.6043 43.8866C78.0438 43.2491 77.2826 42.8901 76.4899 42.8901V45.8044ZM76.7918 45.9466L77.8879 47.1949L79.7011 45.1358L78.6043 43.8866L76.7918 45.9466ZM77.8879 47.1949C78.4183 47.7977 79.1293 48.1531 79.8786 48.1882L79.9845 45.2765C79.8774 45.2714 79.7768 45.2219 79.7011 45.1358L77.8879 47.1949ZM79.8786 48.1882C80.6277 48.2236 81.3612 47.9374 81.9335 47.3864L80.278 45.1621C80.1963 45.2407 80.0914 45.2815 79.9845 45.2765L79.8786 48.1882ZM81.9301 47.3897L85.9413 43.5565L84.2927 41.3253L80.2816 45.1586L81.9301 47.3897Z" fill="white"/>
<path d="M74.7812 29.0451C74.7812 29.8498 75.3549 30.5022 76.0625 30.5022C76.7701 30.5022 77.3437 29.8498 77.3437 29.0451H74.7812ZM77.3437 12.4571C77.3437 11.6524 76.7701 11 76.0625 11C75.3549 11 74.7812 11.6524 74.7812 12.4571H77.3437ZM77.3437 29.0451V12.4571H74.7812V29.0451H77.3437Z" fill="white"/>
<path d="M76.0625 11C75.3549 11 74.7812 11.6524 74.7812 12.4571C74.7812 13.2619 75.3549 13.9143 76.0625 13.9143V11ZM88.3505 12.4571L88.357 11H88.3505V12.4571ZM89.1466 13.04L87.9829 13.65L87.989 13.6648L89.1466 13.04ZM89.039 14.1183L88.0341 13.2143L88.0329 13.216L89.039 14.1183ZM87.0966 16.9198L86.0906 16.0176L86.0878 16.0214L87.0966 16.9198ZM87.0966 18.1943L86.0878 19.0927L86.0912 19.0977L87.0966 18.1943ZM89.1534 22.08L87.9953 21.4565L87.9892 21.4717L89.1534 22.08ZM88.3573 22.6629V24.12L88.3623 24.12L88.3573 22.6629ZM76.0625 21.2057C75.3549 21.2057 74.7812 21.8581 74.7812 22.6629C74.7812 23.4676 75.3549 24.12 76.0625 24.12V21.2057ZM76.0625 13.9143H88.3505V11H76.0625V13.9143ZM88.344 13.9142C88.268 13.9138 88.1935 13.8887 88.1296 13.8419L89.5168 11.3915C89.1708 11.1382 88.7685 11.0024 88.357 11L88.344 13.9142ZM88.1296 13.8419C88.0657 13.7951 88.0146 13.7285 87.9829 13.65L90.3101 12.43C90.1379 12.0051 89.8627 11.6448 89.5168 11.3915L88.1296 13.8419ZM87.989 13.6648C87.959 13.5924 87.9472 13.5118 87.955 13.4322L90.5011 13.7609C90.5472 13.3002 90.4789 12.8341 90.3041 12.4152L87.989 13.6648ZM87.955 13.4322C87.9631 13.3526 87.9904 13.2771 88.0341 13.2143L90.0438 15.0222C90.2968 14.6585 90.4552 14.2217 90.5011 13.7609L87.955 13.4322ZM88.0329 13.216L86.0906 16.0176L88.1026 17.822L90.045 15.0205L88.0329 13.216ZM86.0878 16.0214C85.786 16.4597 85.6221 17.0004 85.6221 17.5571H88.1846C88.1846 17.6517 88.1566 17.7437 88.1054 17.8182L86.0878 16.0214ZM85.6221 17.5571C85.6221 18.1138 85.786 18.6544 86.0878 19.0927L88.1054 17.2959C88.1566 17.3705 88.1846 17.4624 88.1846 17.5571H85.6221ZM86.0912 19.0977L88.0404 21.9032L90.0518 20.0975L88.1019 17.2909L86.0912 19.0977ZM88.0404 21.9032C87.9972 21.841 87.9695 21.7652 87.9617 21.6865L90.5079 21.3584C90.4622 20.898 90.3041 20.4613 90.0518 20.0975L88.0404 21.9032ZM87.9617 21.6865C87.954 21.6078 87.9656 21.5281 87.9953 21.4565L90.3115 22.7034C90.4857 22.2846 90.5539 21.8188 90.5079 21.3584L87.9617 21.6865ZM87.9892 21.4717C88.0211 21.3926 88.0722 21.3255 88.1366 21.2784L89.5238 23.7288C89.8702 23.4751 90.1456 23.1141 90.3176 22.6883L87.9892 21.4717ZM88.1366 21.2784C88.201 21.2313 88.2758 21.2061 88.3524 21.2057L88.3623 24.12C88.7743 24.1182 89.1773 23.9824 89.5238 23.7288L88.1366 21.2784ZM88.3573 21.2057H76.0625V24.12L88.3573 24.12V21.2057Z" fill="white"/>
</svg>
