<svg width="155" height="112" viewBox="0 0 155 112" fill="none" xmlns="http://www.w3.org/2000/svg">
<path d="M1.52 100.959L2.676 94.2274C5.16933 94.8394 7.42467 95.1454 9.442 95.1454C10.462 95.1454 11.3573 95.134 12.128 95.1114C12.9213 95.066 13.624 94.998 14.236 94.9074V92.8674L10.564 92.5614C8.90933 92.4027 7.52667 92.1307 6.416 91.7454C5.30533 91.36 4.41 90.8387 3.73 90.1814C3.07267 89.5014 2.59667 88.6967 2.302 87.7674C2.03 86.8154 1.894 85.7047 1.894 84.4354C1.894 82.69 2.07533 81.2394 2.438 80.0834C2.80067 78.9047 3.37867 77.964 4.172 77.2614C4.96533 76.536 5.98533 76.026 7.232 75.7314C8.50133 75.4367 10.0427 75.2894 11.856 75.2894C15.46 75.2894 18.724 75.6294 21.648 76.3094L20.628 82.8374C18.0893 82.4294 16.0607 82.2254 14.542 82.2254C13.0233 82.2254 11.7313 82.2934 10.666 82.4294V84.4354L13.59 84.7074C15.3807 84.8887 16.8767 85.1947 18.078 85.6254C19.2793 86.0334 20.2427 86.5774 20.968 87.2574C21.716 87.9374 22.2373 88.742 22.532 89.6714C22.8493 90.6007 23.008 91.666 23.008 92.8674C23.008 94.59 22.7813 96.0407 22.328 97.2194C21.8747 98.398 21.3307 99.2934 20.696 99.9054C20.1747 100.404 19.5287 100.801 18.758 101.095C17.9873 101.367 17.1713 101.571 16.31 101.707C15.4487 101.843 14.576 101.923 13.692 101.945C12.8307 101.991 12.0487 102.013 11.346 102.013C9.578 102.013 7.878 101.923 6.246 101.741C4.614 101.56 3.03867 101.299 1.52 100.959ZM46.481 101.401H37.675L34.513 93.3094H34.241V101.401H26.081V74.8814L34.241 74.2694V87.7334H34.513L37.471 81.0014H46.277L41.551 90.7254L46.481 101.401ZM57.0848 101.401H48.9248V82.0214L57.0848 81.0014V101.401ZM48.4828 77.1594C48.4828 76.5474 48.5508 76.0374 48.6868 75.6294C48.8228 75.1987 49.0608 74.8587 49.4008 74.6094C49.7408 74.3374 50.2054 74.1447 50.7948 74.0314C51.3841 73.918 52.1321 73.8614 53.0388 73.8614C53.9454 73.8614 54.6821 73.918 55.2488 74.0314C55.8381 74.1447 56.3028 74.3374 56.6428 74.6094C56.9828 74.8587 57.2208 75.1987 57.3568 75.6294C57.4928 76.0374 57.5608 76.5474 57.5608 77.1594C57.5608 77.7714 57.4928 78.2814 57.3568 78.6894C57.2208 79.0974 56.9828 79.4374 56.6428 79.7094C56.3028 79.9587 55.8381 80.14 55.2488 80.2534C54.6821 80.344 53.9454 80.3894 53.0388 80.3894C52.3814 80.3894 51.7694 80.3667 51.2028 80.3214C50.6588 80.276 50.1828 80.1514 49.7748 79.9474C49.3668 79.7207 49.0494 79.392 48.8228 78.9614C48.5961 78.5307 48.4828 77.93 48.4828 77.1594ZM74.2327 93.8874V92.7994H72.1587V86.5434H81.9847V100.177C78.7661 101.401 75.4227 102.013 71.9547 102.013C69.5747 102.013 67.6027 101.73 66.0387 101.163C64.4974 100.597 63.2734 99.758 62.3667 98.6474C61.4601 97.514 60.8254 96.12 60.4627 94.4654C60.1227 92.788 59.9527 90.8387 59.9527 88.6174C59.9527 86.26 60.1681 84.2427 60.5987 82.5654C61.0294 80.8654 61.7434 79.4827 62.7407 78.4174C63.7381 77.3294 65.0641 76.536 66.7187 76.0374C68.3734 75.5387 70.4247 75.2894 72.8727 75.2894C73.4167 75.2894 74.0514 75.3234 74.7767 75.3914C75.5247 75.4367 76.2727 75.516 77.0207 75.6294C77.7687 75.72 78.4714 75.8334 79.1287 75.9694C79.8087 76.0827 80.3527 76.2074 80.7607 76.3434L79.5367 82.5994C78.4261 82.418 77.3721 82.282 76.3747 82.1914C75.3774 82.078 74.4481 82.0214 73.5867 82.0214C71.7961 82.0214 70.5381 82.1574 69.8127 82.4294C69.0874 82.7014 68.7247 83.2454 68.7247 84.0614V95.6214H71.4107C72.4081 95.6214 73.1221 95.5194 73.5527 95.3154C74.0061 95.0887 74.2327 94.6127 74.2327 93.8874ZM93.6034 94.4654V95.8934C94.0114 95.9387 94.4194 95.9727 94.8274 95.9954C95.2354 96.018 95.6434 96.0294 96.0514 96.0294C98.5901 96.0294 101.151 95.6214 103.735 94.8054L104.687 100.789C101.627 101.605 98.6128 102.013 95.6434 102.013C91.8354 102.013 89.0814 101.129 87.3814 99.3614C85.6814 97.5707 84.8314 94.8507 84.8314 91.2014C84.8314 87.552 85.6814 84.8434 87.3814 83.0754C89.1041 81.2847 91.8581 80.3894 95.6434 80.3894C97.5474 80.3894 99.1341 80.514 100.403 80.7634C101.673 80.99 102.693 81.3867 103.463 81.9534C104.257 82.4974 104.812 83.2454 105.129 84.1974C105.469 85.1267 105.639 86.3054 105.639 87.7334C105.639 88.912 105.435 89.932 105.027 90.7934C104.642 91.632 103.985 92.3234 103.055 92.8674C102.126 93.4114 100.891 93.8194 99.3494 94.0914C97.8081 94.3407 95.8928 94.4654 93.6034 94.4654ZM93.6034 88.0734V89.7394H95.2694C96.2668 89.7394 96.9808 89.6374 97.4114 89.4334C97.8648 89.2294 98.0914 88.7534 98.0914 88.0054V86.3394H96.4254C95.4281 86.3394 94.7028 86.4414 94.2494 86.6454C93.8188 86.8494 93.6034 87.3254 93.6034 88.0734ZM118.346 80.3894C124.874 80.3894 128.138 82.6334 128.138 87.1214V101.401H124.058L121.746 99.0894C121.338 99.5427 120.851 99.9507 120.284 100.313C119.74 100.676 119.151 100.982 118.516 101.231C117.882 101.481 117.236 101.673 116.578 101.809C115.921 101.945 115.286 102.013 114.674 102.013C113.518 102.013 112.476 101.889 111.546 101.639C110.64 101.413 109.869 101.039 109.234 100.517C108.6 99.996 108.112 99.3047 107.772 98.4434C107.432 97.582 107.262 96.528 107.262 95.2814C107.262 90.3854 110.957 87.9374 118.346 87.9374H119.978V86.4754C119.548 86.4527 119.151 86.43 118.788 86.4074C118.448 86.3847 118.131 86.3734 117.836 86.3734C114.776 86.3734 112.136 86.7474 109.914 87.4954L108.928 81.6474C111.648 80.8087 114.788 80.3894 118.346 80.3894ZM115.49 94.3974V96.0634H117.19C118.369 96.0634 119.14 95.9274 119.502 95.6554C119.82 95.3607 119.978 95.0094 119.978 94.6014V92.6634H118.312C117.338 92.6634 116.624 92.7654 116.17 92.9694C115.717 93.1734 115.49 93.6494 115.49 94.3974ZM131.8 101.401V81.0014H135.88L138.124 83.2794C139.756 81.7834 141.773 80.82 144.176 80.3894L144.652 88.1074C144.334 88.1074 143.949 88.1527 143.496 88.2434C143.042 88.334 142.578 88.4474 142.102 88.5834C141.648 88.7194 141.229 88.8894 140.844 89.0934C140.458 89.2747 140.164 89.49 139.96 89.7394V101.401H131.8Z" fill="#F2F4FF"/>
<path d="M108.5 34C108.5 52.7777 93.2777 68 74.5 68C55.7223 68 40.5 52.7777 40.5 34C40.5 15.2223 55.7223 0 74.5 0C93.2777 0 108.5 15.2223 108.5 34Z" fill="#F2F4FF"/>
<path d="M60.7605 56.1709L59.6763 55.3946C59.4277 55.8436 59.4134 56.4107 59.6388 56.8752C59.8643 57.3397 60.294 57.6281 60.7605 57.6281V56.1709ZM75.2813 29.9427L74.2652 29.055C74.2411 29.0909 74.2182 29.128 74.197 29.1663L75.2813 29.9427ZM78.6979 29.9427L79.7822 29.1663C79.761 29.128 79.7383 29.0909 79.714 29.055L78.6979 29.9427ZM93.2187 56.1709V57.6281C93.6853 57.6281 94.1149 57.3397 94.3404 56.8752C94.5659 56.4107 94.5516 55.8436 94.303 55.3946L93.2187 56.1709ZM61.8447 56.9473L76.3656 30.719L74.197 29.1663L59.6763 55.3946L61.8447 56.9473ZM76.2974 30.8303C76.3789 30.7097 76.4838 30.6119 76.6037 30.5445L75.4709 27.9305C74.9985 28.1953 74.586 28.58 74.2652 29.055L76.2974 30.8303ZM76.6037 30.5445C76.7238 30.4773 76.8558 30.4423 76.9896 30.4423V27.5281C76.4629 27.5281 75.9434 27.6658 75.4709 27.9305L76.6037 30.5445ZM76.9896 30.4423C77.1234 30.4423 77.2554 30.4773 77.3755 30.5445L78.5083 27.9305C78.0358 27.6658 77.5163 27.5281 76.9896 27.5281V30.4423ZM77.3755 30.5445C77.4956 30.6119 77.6003 30.7097 77.6818 30.8303L79.714 29.055C79.3932 28.58 78.9807 28.1953 78.5083 27.9305L77.3755 30.5445ZM77.6137 30.719L92.1344 56.9473L94.303 55.3946L79.7822 29.1663L77.6137 30.719ZM93.2187 54.7138H60.7605V57.6281H93.2187V54.7138Z" fill="#0064AC"/>
<path d="M60.7604 57.6281C61.468 57.6281 62.0416 56.9757 62.0416 56.171C62.0416 55.3663 61.468 54.7138 60.7604 54.7138V57.6281ZM54.7812 56.171L53.6612 55.4634C53.4408 55.9147 53.4468 56.4649 53.677 56.9098C53.9072 57.3549 54.3273 57.6281 54.7812 57.6281L54.7812 56.171ZM61.1875 43.0568L62.2124 42.1824C61.9518 41.7874 61.5332 41.5694 61.1001 41.603C60.6669 41.6368 60.2783 41.9175 60.0675 42.3492L61.1875 43.0568ZM63.8782 49.5636C64.3029 50.2072 65.106 50.3376 65.672 49.8546C66.238 49.3716 66.3526 48.4583 65.928 47.8146L63.8782 49.5636ZM60.7604 54.7138H54.7812L54.7812 57.6281H60.7604V54.7138ZM55.9013 56.8786L62.3075 43.7644L60.0675 42.3492L53.6612 55.4634L55.9013 56.8786ZM60.1626 43.9313L63.8782 49.5636L65.928 47.8146L62.2124 42.1824L60.1626 43.9313Z" fill="#0064AC"/>
<path d="M69.1871 41.3252C68.6454 40.8075 67.8372 40.8873 67.382 41.5034C66.9267 42.1195 66.9969 43.0386 67.5386 43.5564L69.1871 41.3252ZM72.374 46.274L73.2017 45.1618L73.1983 45.1585L72.374 46.274ZM81.6058 46.274L80.7816 45.1585L80.778 45.162L81.6058 46.274ZM86.4413 43.5564C86.983 43.0386 87.0532 42.1195 86.5979 41.5034C86.1426 40.8873 85.3344 40.8075 84.7927 41.3252L86.4413 43.5564ZM67.5386 43.5564L71.5498 47.3896L73.1983 45.1585L69.1871 41.3252L67.5386 43.5564ZM71.5462 47.3863C72.1186 47.9373 72.8522 48.2235 73.6013 48.1881L73.4954 45.2764C73.3883 45.2814 73.2836 45.2405 73.2017 45.1618L71.5462 47.3863ZM73.6013 48.1881C74.3506 48.153 75.0607 47.7988 75.5912 47.1959L73.7797 45.1348C73.7038 45.2208 73.6025 45.2713 73.4954 45.2764L73.6013 48.1881ZM75.5912 47.1959L76.6888 45.9455L74.8762 43.8855L73.7797 45.1348L75.5912 47.1959ZM76.6888 45.9455C76.7689 45.8546 76.8767 45.8043 76.9899 45.8043V42.89C76.1973 42.89 75.4369 43.2481 74.8762 43.8855L76.6888 45.9455ZM76.9899 45.8043C77.1032 45.8043 77.2119 45.8556 77.2918 45.9465L79.1043 43.8865C78.5438 43.249 77.7826 42.89 76.9899 42.89V45.8043ZM77.2918 45.9465L78.3879 47.1948L80.2011 45.1357L79.1043 43.8865L77.2918 45.9465ZM78.3879 47.1948C78.9183 47.7976 79.6293 48.153 80.3786 48.1881L80.4845 45.2764C80.3774 45.2713 80.2768 45.2218 80.2011 45.1357L78.3879 47.1948ZM80.3786 48.1881C81.1277 48.2235 81.8612 47.9373 82.4335 47.3863L80.778 45.162C80.6963 45.2406 80.5914 45.2814 80.4845 45.2764L80.3786 48.1881ZM82.4301 47.3896L86.4413 43.5564L84.7927 41.3252L80.7816 45.1585L82.4301 47.3896Z" fill="#0064AC"/>
<path d="M75.2812 29.0451C75.2812 29.8498 75.8549 30.5022 76.5625 30.5022C77.2701 30.5022 77.8437 29.8498 77.8437 29.0451H75.2812ZM77.8437 12.4571C77.8437 11.6524 77.2701 11 76.5625 11C75.8549 11 75.2812 11.6524 75.2812 12.4571H77.8437ZM77.8437 29.0451V12.4571H75.2812V29.0451H77.8437Z" fill="#0064AC"/>
<path d="M76.5625 11C75.8549 11 75.2812 11.6524 75.2812 12.4571C75.2812 13.2619 75.8549 13.9143 76.5625 13.9143V11ZM88.8505 12.4571L88.857 11H88.8505V12.4571ZM89.6466 13.04L88.4829 13.65L88.489 13.6648L89.6466 13.04ZM89.539 14.1183L88.5341 13.2143L88.5329 13.216L89.539 14.1183ZM87.5966 16.9198L86.5906 16.0176L86.5878 16.0214L87.5966 16.9198ZM87.5966 18.1943L86.5878 19.0927L86.5912 19.0977L87.5966 18.1943ZM89.6534 22.08L88.4953 21.4565L88.4892 21.4717L89.6534 22.08ZM88.8573 22.6629V24.12L88.8623 24.12L88.8573 22.6629ZM76.5625 21.2057C75.8549 21.2057 75.2812 21.8581 75.2812 22.6629C75.2812 23.4676 75.8549 24.12 76.5625 24.12V21.2057ZM76.5625 13.9143H88.8505V11H76.5625V13.9143ZM88.844 13.9142C88.768 13.9138 88.6935 13.8887 88.6296 13.8419L90.0168 11.3915C89.6708 11.1382 89.2685 11.0024 88.857 11L88.844 13.9142ZM88.6296 13.8419C88.5657 13.7951 88.5146 13.7285 88.4829 13.65L90.8101 12.43C90.6379 12.0051 90.3627 11.6448 90.0168 11.3915L88.6296 13.8419ZM88.489 13.6648C88.459 13.5924 88.4472 13.5118 88.455 13.4322L91.0011 13.7609C91.0472 13.3002 90.9789 12.8341 90.8041 12.4152L88.489 13.6648ZM88.455 13.4322C88.4631 13.3526 88.4904 13.2771 88.5341 13.2143L90.5438 15.0222C90.7968 14.6585 90.9552 14.2217 91.0011 13.7609L88.455 13.4322ZM88.5329 13.216L86.5906 16.0176L88.6026 17.822L90.545 15.0205L88.5329 13.216ZM86.5878 16.0214C86.286 16.4597 86.1221 17.0004 86.1221 17.5571H88.6846C88.6846 17.6517 88.6566 17.7437 88.6054 17.8182L86.5878 16.0214ZM86.1221 17.5571C86.1221 18.1138 86.286 18.6544 86.5878 19.0927L88.6054 17.2959C88.6566 17.3705 88.6846 17.4624 88.6846 17.5571H86.1221ZM86.5912 19.0977L88.5404 21.9032L90.5518 20.0975L88.6019 17.2909L86.5912 19.0977ZM88.5404 21.9032C88.4972 21.841 88.4695 21.7652 88.4617 21.6865L91.0079 21.3584C90.9622 20.898 90.8041 20.4613 90.5518 20.0975L88.5404 21.9032ZM88.4617 21.6865C88.454 21.6078 88.4656 21.5281 88.4953 21.4565L90.8115 22.7034C90.9857 22.2846 91.0539 21.8188 91.0079 21.3584L88.4617 21.6865ZM88.4892 21.4717C88.5211 21.3926 88.5722 21.3255 88.6366 21.2784L90.0238 23.7288C90.3702 23.4751 90.6456 23.1141 90.8176 22.6883L88.4892 21.4717ZM88.6366 21.2784C88.701 21.2313 88.7758 21.2061 88.8524 21.2057L88.8623 24.12C89.2743 24.1182 89.6773 23.9824 90.0238 23.7288L88.6366 21.2784ZM88.8573 21.2057H76.5625V24.12L88.8573 24.12V21.2057Z" fill="#0064AC"/>
</svg>
