<svg width="86" height="46" viewBox="0 0 86 46" fill="none" xmlns="http://www.w3.org/2000/svg">
<path d="M0.6 38.3486L1.28 34.3886C2.74667 34.7486 4.07333 34.9286 5.26 34.9286C5.86 34.9286 6.38667 34.9219 6.84 34.9086C7.30667 34.8819 7.72 34.8419 8.08 34.7886V33.5886L5.92 33.4086C4.94667 33.3152 4.13333 33.1552 3.48 32.9286C2.82667 32.7019 2.3 32.3952 1.9 32.0086C1.51333 31.6086 1.23333 31.1352 1.06 30.5886C0.9 30.0286 0.82 29.3752 0.82 28.6286C0.82 27.6019 0.926667 26.7486 1.14 26.0686C1.35333 25.3752 1.69333 24.8219 2.16 24.4086C2.62667 23.9819 3.22667 23.6819 3.96 23.5086C4.70667 23.3352 5.61333 23.2486 6.68 23.2486C8.8 23.2486 10.72 23.4486 12.44 23.8486L11.84 27.6886C10.3467 27.4486 9.15333 27.3286 8.26 27.3286C7.36667 27.3286 6.60667 27.3686 5.98 27.4486V28.6286L7.7 28.7886C8.75333 28.8952 9.63333 29.0752 10.34 29.3286C11.0467 29.5686 11.6133 29.8886 12.04 30.2886C12.48 30.6886 12.7867 31.1619 12.96 31.7086C13.1467 32.2552 13.24 32.8819 13.24 33.5886C13.24 34.6019 13.1067 35.4552 12.84 36.1486C12.5733 36.8419 12.2533 37.3686 11.88 37.7286C11.5733 38.0219 11.1933 38.2552 10.74 38.4286C10.2867 38.5886 9.80667 38.7086 9.3 38.7886C8.79333 38.8686 8.28 38.9152 7.76 38.9286C7.25333 38.9552 6.79333 38.9686 6.38 38.9686C5.34 38.9686 4.34 38.9152 3.38 38.8086C2.42 38.7019 1.49333 38.5486 0.6 38.3486ZM27.0477 38.6086H21.8677L20.0077 33.8486H19.8477V38.6086H15.0477V23.0086L19.8477 22.6486V30.5686H20.0077L21.7477 26.6086H26.9277L24.1477 32.3286L27.0477 38.6086ZM33.2852 38.6086H28.4852V27.2086L33.2852 26.6086V38.6086ZM28.2252 24.3486C28.2252 23.9886 28.2652 23.6886 28.3452 23.4486C28.4252 23.1952 28.5652 22.9952 28.7652 22.8486C28.9652 22.6886 29.2385 22.5752 29.5852 22.5086C29.9318 22.4419 30.3718 22.4086 30.9052 22.4086C31.4385 22.4086 31.8718 22.4419 32.2052 22.5086C32.5518 22.5752 32.8252 22.6886 33.0252 22.8486C33.2252 22.9952 33.3652 23.1952 33.4452 23.4486C33.5252 23.6886 33.5652 23.9886 33.5652 24.3486C33.5652 24.7086 33.5252 25.0086 33.4452 25.2486C33.3652 25.4886 33.2252 25.6886 33.0252 25.8486C32.8252 25.9952 32.5518 26.1019 32.2052 26.1686C31.8718 26.2219 31.4385 26.2486 30.9052 26.2486C30.5185 26.2486 30.1585 26.2352 29.8252 26.2086C29.5052 26.1819 29.2252 26.1086 28.9852 25.9886C28.7452 25.8552 28.5585 25.6619 28.4252 25.4086C28.2918 25.1552 28.2252 24.8019 28.2252 24.3486ZM43.3722 34.1886V33.5486H42.1522V29.8686H47.9322V37.8886C46.0389 38.6086 44.0722 38.9686 42.0322 38.9686C40.6322 38.9686 39.4722 38.8019 38.5522 38.4686C37.6455 38.1352 36.9255 37.6419 36.3922 36.9886C35.8589 36.3219 35.4855 35.5019 35.2722 34.5286C35.0722 33.5419 34.9722 32.3952 34.9722 31.0886C34.9722 29.7019 35.0989 28.5152 35.3522 27.5286C35.6055 26.5286 36.0255 25.7152 36.6122 25.0886C37.1989 24.4486 37.9789 23.9819 38.9522 23.6886C39.9255 23.3952 41.1322 23.2486 42.5722 23.2486C42.8922 23.2486 43.2655 23.2686 43.6922 23.3086C44.1322 23.3352 44.5722 23.3819 45.0122 23.4486C45.4522 23.5019 45.8655 23.5686 46.2522 23.6486C46.6522 23.7152 46.9722 23.7886 47.2122 23.8686L46.4922 27.5486C45.8389 27.4419 45.2189 27.3619 44.6322 27.3086C44.0455 27.2419 43.4989 27.2086 42.9922 27.2086C41.9389 27.2086 41.1989 27.2886 40.7722 27.4486C40.3455 27.6086 40.1322 27.9286 40.1322 28.4086V35.2086H41.7122C42.2989 35.2086 42.7189 35.1486 42.9722 35.0286C43.2389 34.8952 43.3722 34.6152 43.3722 34.1886ZM54.7667 34.5286V35.3686C55.0067 35.3952 55.2467 35.4152 55.4867 35.4286C55.7267 35.4419 55.9667 35.4486 56.2067 35.4486C57.7001 35.4486 59.2067 35.2086 60.7267 34.7286L61.2867 38.2486C59.4867 38.7286 57.7134 38.9686 55.9667 38.9686C53.7267 38.9686 52.1067 38.4486 51.1067 37.4086C50.1067 36.3552 49.6067 34.7552 49.6067 32.6086C49.6067 30.4619 50.1067 28.8686 51.1067 27.8286C52.1201 26.7752 53.7401 26.2486 55.9667 26.2486C57.0867 26.2486 58.0201 26.3219 58.7667 26.4686C59.5134 26.6019 60.1134 26.8352 60.5667 27.1686C61.0334 27.4886 61.3601 27.9286 61.5467 28.4886C61.7467 29.0352 61.8467 29.7286 61.8467 30.5686C61.8467 31.2619 61.7267 31.8619 61.4867 32.3686C61.2601 32.8619 60.8734 33.2686 60.3267 33.5886C59.7801 33.9086 59.0534 34.1486 58.1467 34.3086C57.2401 34.4552 56.1134 34.5286 54.7667 34.5286ZM54.7667 30.7686V31.7486H55.7467C56.3334 31.7486 56.7534 31.6886 57.0067 31.5686C57.2734 31.4486 57.4067 31.1686 57.4067 30.7286V29.7486H56.4267C55.8401 29.7486 55.4134 29.8086 55.1467 29.9286C54.8934 30.0486 54.7667 30.3286 54.7667 30.7686ZM69.3214 26.2486C73.1614 26.2486 75.0814 27.5686 75.0814 30.2086V38.6086H72.6814L71.3214 37.2486C71.0814 37.5152 70.7947 37.7552 70.4614 37.9686C70.1414 38.1819 69.7947 38.3619 69.4214 38.5086C69.0481 38.6552 68.6681 38.7686 68.2814 38.8486C67.8947 38.9286 67.5214 38.9686 67.1614 38.9686C66.4814 38.9686 65.8681 38.8952 65.3214 38.7486C64.7881 38.6152 64.3347 38.3952 63.9614 38.0886C63.5881 37.7819 63.3014 37.3752 63.1014 36.8686C62.9014 36.3619 62.8014 35.7419 62.8014 35.0086C62.8014 32.1286 64.9747 30.6886 69.3214 30.6886H70.2814V29.8286C70.0281 29.8152 69.7947 29.8019 69.5814 29.7886C69.3814 29.7752 69.1947 29.7686 69.0214 29.7686C67.2214 29.7686 65.6681 29.9886 64.3614 30.4286L63.7814 26.9886C65.3814 26.4952 67.2281 26.2486 69.3214 26.2486ZM67.6414 34.4886V35.4686H68.6414C69.3347 35.4686 69.7881 35.3886 70.0014 35.2286C70.1881 35.0552 70.2814 34.8486 70.2814 34.6086V33.4686H69.3014C68.7281 33.4686 68.3081 33.5286 68.0414 33.6486C67.7747 33.7686 67.6414 34.0486 67.6414 34.4886ZM77.2352 38.6086V26.6086H79.6352L80.9552 27.9486C81.9152 27.0686 83.1018 26.5019 84.5152 26.2486L84.7952 30.7886C84.6085 30.7886 84.3818 30.8152 84.1152 30.8686C83.8485 30.9219 83.5752 30.9886 83.2952 31.0686C83.0285 31.1486 82.7818 31.2486 82.5552 31.3686C82.3285 31.4752 82.1552 31.6019 82.0352 31.7486V38.6086H77.2352Z" fill="#4C4C4C"/>
<path d="M63.6045 23.1214L62.9169 22.724C62.7593 22.9538 62.7502 23.2441 62.8932 23.4819C63.0362 23.7197 63.3086 23.8672 63.6045 23.8672V23.1214ZM72.8126 9.69605L72.1683 9.24168C72.153 9.26005 72.1385 9.27905 72.1251 9.29865L72.8126 9.69605ZM74.9793 9.69605L75.6668 9.29865C75.6534 9.27905 75.639 9.26005 75.6236 9.24168L74.9793 9.69605ZM84.1874 23.1214V23.8672C84.4833 23.8672 84.7557 23.7197 84.8987 23.4819C85.0417 23.2441 85.0326 22.9538 84.875 22.724L84.1874 23.1214ZM64.292 23.5188L73.5002 10.0934L72.1251 9.29865L62.9169 22.724L64.292 23.5188ZM73.457 10.1504C73.5087 10.0887 73.5752 10.0386 73.6512 10.0041L72.9329 8.66612C72.6333 8.80163 72.3717 8.99856 72.1683 9.24168L73.457 10.1504ZM73.6512 10.0041C73.7274 9.96972 73.8111 9.95182 73.8959 9.95182V8.46011C73.562 8.46011 73.2325 8.5306 72.9329 8.66612L73.6512 10.0041ZM73.8959 9.95182C73.9808 9.95182 74.0645 9.96972 74.1407 10.0041L74.859 8.66612C74.5594 8.5306 74.2299 8.46011 73.8959 8.46011V9.95182ZM74.1407 10.0041C74.2168 10.0386 74.2832 10.0887 74.3349 10.1504L75.6236 9.24168C75.4202 8.99856 75.1586 8.80163 74.859 8.66612L74.1407 10.0041ZM74.2917 10.0934L83.4998 23.5188L84.875 22.724L75.6668 9.29865L74.2917 10.0934ZM84.1874 22.3755H63.6045V23.8672H84.1874V22.3755Z" fill="#0064AC"/>
<path d="M63.6041 23.8675C64.0528 23.8675 64.4166 23.5336 64.4166 23.1216C64.4166 22.7097 64.0528 22.3758 63.6041 22.3758V23.8675ZM59.8125 23.1216L59.1022 22.7595C58.9624 22.9905 58.9662 23.2721 59.1122 23.4998C59.2582 23.7277 59.5246 23.8675 59.8125 23.8675L59.8125 23.1216ZM63.8749 16.409L64.5248 15.9614C64.3596 15.7592 64.0941 15.6476 63.8195 15.6648C63.5448 15.6821 63.2984 15.8258 63.1647 16.0468L63.8749 16.409ZM65.5812 19.7395C65.8505 20.069 66.3598 20.1357 66.7187 19.8885C67.0776 19.6413 67.1503 19.1738 66.881 18.8443L65.5812 19.7395ZM63.6041 22.3758H59.8125L59.8125 23.8675H63.6041V22.3758ZM60.5227 23.4838L64.5852 16.7712L63.1647 16.0468L59.1022 22.7595L60.5227 23.4838ZM63.225 16.8566L65.5812 19.7395L66.881 18.8443L64.5248 15.9614L63.225 16.8566Z" fill="#0064AC"/>
<path d="M68.9468 15.5222C68.6032 15.2571 68.0907 15.298 67.802 15.6133C67.5134 15.9287 67.5578 16.3992 67.9014 16.6642L68.9468 15.5222ZM70.9677 18.0553L71.4926 17.4859L71.4904 17.4842L70.9677 18.0553ZM76.8219 18.0553L76.2992 17.4842L76.2969 17.486L76.8219 18.0553ZM79.8882 16.6642C80.2318 16.3992 80.2763 15.9287 79.9876 15.6133C79.6989 15.298 79.1864 15.2571 78.8428 15.5222L79.8882 16.6642ZM67.9014 16.6642L70.445 18.6263L71.4904 17.4842L68.9468 15.5222L67.9014 16.6642ZM70.4427 18.6246C70.8057 18.9066 71.2709 19.0531 71.746 19.035L71.6788 17.5446C71.6109 17.5472 71.5445 17.5262 71.4926 17.4859L70.4427 18.6246ZM71.746 19.035C72.2211 19.017 72.6714 18.8357 73.0078 18.5271L71.859 17.4721C71.8109 17.5162 71.7467 17.542 71.6788 17.5446L71.746 19.035ZM73.0078 18.5271L73.7038 17.8871L72.5544 16.8327L71.859 17.4721L73.0078 18.5271ZM73.7038 17.8871C73.7546 17.8406 73.823 17.8148 73.8948 17.8148V16.3231C73.3922 16.3231 72.91 16.5064 72.5544 16.8327L73.7038 17.8871ZM73.8948 17.8148C73.9666 17.8148 74.0355 17.8411 74.0862 17.8876L75.2356 16.8332C74.8802 16.5069 74.3975 16.3231 73.8948 16.3231V17.8148ZM74.0862 17.8876L74.7813 18.5266L75.9311 17.4726L75.2356 16.8332L74.0862 17.8876ZM74.7813 18.5266C75.1177 18.8351 75.5685 19.017 76.0437 19.035L76.1108 17.5446C76.0429 17.542 75.9791 17.5167 75.9311 17.4726L74.7813 18.5266ZM76.0437 19.035C76.5187 19.0531 76.9839 18.9066 77.3468 18.6246L76.2969 17.486C76.2452 17.5263 76.1787 17.5472 76.1108 17.5446L76.0437 19.035ZM77.3446 18.6263L79.8882 16.6642L78.8428 15.5222L76.2992 17.4842L77.3446 18.6263Z" fill="#0064AC"/>
<path d="M72.813 9.23664C72.813 9.64856 73.1768 9.9825 73.6255 9.9825C74.0742 9.9825 74.438 9.64856 74.438 9.23664H72.813ZM74.438 0.745853C74.438 0.333929 74.0742 0 73.6255 0C73.1768 0 72.813 0.333929 72.813 0.745853H74.438ZM74.438 9.23664V0.745853H72.813V9.23664H74.438Z" fill="#0064AC"/>
<path d="M73.6255 0C73.1768 0 72.813 0.333929 72.813 0.745853C72.813 1.15777 73.1768 1.49171 73.6255 1.49171V0ZM81.4177 0.745853L81.4219 0H81.4177V0.745853ZM81.9226 1.04419L81.1846 1.35642L81.1885 1.36401L81.9226 1.04419ZM81.8543 1.59613L81.2171 1.13343L81.2164 1.13431L81.8543 1.59613ZM80.6226 3.03015L79.9846 2.56834L79.9829 2.5703L80.6226 3.03015ZM80.6226 3.68252L79.9829 4.14238L79.9851 4.14493L80.6226 3.68252ZM81.9269 5.67147L81.1925 5.35233L81.1886 5.3601L81.9269 5.67147ZM81.4221 5.96981V6.71567L81.4252 6.71565L81.4221 5.96981ZM73.6255 5.22395C73.1768 5.22395 72.813 5.55789 72.813 5.96981C72.813 6.38173 73.1768 6.71566 73.6255 6.71566V5.22395ZM73.6255 1.49171H81.4177V0H73.6255V1.49171ZM81.4136 1.4917C81.3654 1.49147 81.3182 1.47862 81.2777 1.45466L82.1573 0.200393C81.9379 0.0707391 81.6828 0.00121526 81.4219 0L81.4136 1.4917ZM81.2777 1.45466C81.2372 1.43069 81.2048 1.39662 81.1846 1.35642L82.6604 0.731986C82.5512 0.514461 82.3767 0.330048 82.1573 0.200393L81.2777 1.45466ZM81.1885 1.36401C81.1694 1.32695 81.162 1.28572 81.167 1.24498L82.7815 1.41322C82.8108 1.1774 82.7674 0.938798 82.6566 0.724383L81.1885 1.36401ZM81.167 1.24498C81.172 1.20423 81.1894 1.16559 81.2171 1.13343L82.4915 2.05882C82.652 1.87268 82.7524 1.64905 82.7815 1.41322L81.167 1.24498ZM81.2164 1.13431L79.9846 2.56834L81.2606 3.49196L82.4923 2.05794L81.2164 1.13431ZM79.9829 2.5703C79.7915 2.79465 79.6876 3.07139 79.6876 3.35634H81.3126C81.3126 3.40479 81.2948 3.45185 81.2623 3.49L79.9829 2.5703ZM79.6876 3.35634C79.6876 3.64128 79.7915 3.91802 79.9829 4.14238L81.2623 3.22267C81.2948 3.26083 81.3126 3.30789 81.3126 3.35634H79.6876ZM79.9851 4.14493L81.2211 5.58095L82.4966 4.65668L81.2601 3.22012L79.9851 4.14493ZM81.2211 5.58095C81.1937 5.54912 81.1762 5.51034 81.1712 5.47006L82.7859 5.30211C82.7568 5.06645 82.6566 4.84291 82.4966 4.65668L81.2211 5.58095ZM81.1712 5.47006C81.1663 5.42977 81.1737 5.38899 81.1925 5.35233L82.6613 5.99058C82.7718 5.7762 82.815 5.53777 82.7859 5.30211L81.1712 5.47006ZM81.1886 5.3601C81.2089 5.3196 81.2413 5.28527 81.2821 5.26116L82.1618 6.51542C82.3815 6.38558 82.5561 6.2008 82.6652 5.98283L81.1886 5.3601ZM81.2821 5.26116C81.323 5.23704 81.3704 5.22413 81.4189 5.22396L81.4252 6.71565C81.6865 6.71473 81.9421 6.64526 82.1618 6.51542L81.2821 5.26116ZM81.4221 5.22395H73.6255V6.71566L81.4221 6.71567V5.22395Z" fill="#0064AC"/>
</svg>
