<svg width="29" height="50" viewBox="0 0 29 50" fill="none" xmlns="http://www.w3.org/2000/svg">
<path d="M1.09795 1.13506C0.394933 1.83829 0 2.79194 0 3.78631C0 4.78067 0.394933 5.73433 1.09795 6.43756L19.6604 25.0001L1.09795 43.5626C0.414857 44.2698 0.0368765 45.2171 0.0454205 46.2003C0.0539646 47.1836 0.448349 48.1241 1.14363 48.8194C1.83891 49.5147 2.77946 49.909 3.76269 49.9176C4.74593 49.9261 5.69319 49.5481 6.40045 48.8651L27.6142 27.6513C28.3172 26.9481 28.7122 25.9944 28.7122 25.0001C28.7122 24.0057 28.3172 23.052 27.6142 22.3488L6.40045 1.13506C5.69722 0.432042 4.74356 0.0371094 3.7492 0.0371094C2.75483 0.0371094 1.80118 0.432042 1.09795 1.13506Z" fill="#4C4C4C"/>
</svg>
