<svg width="52" height="52" viewBox="0 0 52 52" fill="none" xmlns="http://www.w3.org/2000/svg">
<path d="M26 0.735352C20.8578 0.735352 15.8308 2.2171 11.5552 4.99322C7.27951 7.76934 3.94703 11.7152 1.97915 16.3317C0.011276 20.9481 -0.503623 26.0282 0.499587 30.9289C1.5028 35.83 3.97907 40.3315 7.61524 43.8651C11.2514 47.3984 15.8841 49.8045 20.9277 50.7794C25.9711 51.7543 31.199 51.2538 35.9499 49.3416C40.7007 47.4293 44.7613 44.1913 47.6184 40.0365C50.4751 35.8818 52 30.9971 52 26.0001C52 19.2995 49.2606 12.8733 44.3849 8.13524C39.5089 3.39715 32.8955 0.735352 26 0.735352ZM38.7725 18.0417L34.515 37.5903C34.19 38.9799 33.345 39.2957 32.1425 38.664L25.6425 33.9901L22.3925 36.9271C22.2394 37.1213 22.0428 37.2792 21.8176 37.3888C21.5924 37.4981 21.3444 37.5562 21.0925 37.5587L21.5475 31.2425L33.5725 20.6629C34.125 20.2208 33.5725 19.9681 32.7925 20.4103L18.0375 29.4108L11.5375 27.4528C10.14 27.0423 10.1075 26.0948 11.83 25.4632L36.8875 15.9889C38.1225 15.6415 39.1625 16.3363 38.7725 18.0417Z" fill="#F3F3F3"/>
</svg>
