<svg width="52" height="30" viewBox="0 0 52 30" fill="none" xmlns="http://www.w3.org/2000/svg">
<path d="M31.4876 14.4465C30.5367 14.1019 30.5367 12.7858 30.4778 11.8693C30.2401 8.60482 31.4286 3.62099 30.0024 1.50208C28.9926 0.241004 24.1185 0.356481 21.1481 0.528779C20.3151 0.644256 19.3053 0.814723 18.5922 1.15932C17.8791 1.50392 17.1659 2.0758 17.1659 2.59086C17.1659 3.33505 18.9497 3.2214 19.602 4.19471C20.3151 5.22666 20.3151 7.45921 20.3151 9.29218C20.3151 11.4111 19.9576 14.2192 19.0676 14.3328C17.7003 14.3896 16.9282 13.0717 16.2151 12.0984C14.7888 10.2087 13.3626 7.8588 12.2919 5.5676C11.7575 4.36517 11.459 3.04727 10.6869 2.53221C9.49833 1.72937 7.35893 1.67255 5.27848 1.72937C3.37679 1.78619 0.642157 1.55707 0.107782 2.64585C-0.308689 3.84828 0.583204 4.99388 1.05863 5.96902C3.49469 11.0665 6.10952 15.5353 9.31957 19.7731C12.2919 23.7249 15.0836 26.8758 20.551 28.5365C22.097 28.9947 28.8708 30.3126 30.2382 28.5365C30.7136 27.8491 30.5957 26.3021 30.8334 25.1565C31.0711 24.0109 31.3678 22.8653 32.4974 22.8084C33.4482 22.7516 33.9826 23.5526 34.5778 24.1264C35.232 24.7569 35.7664 25.272 36.2418 25.8457C37.3714 26.9344 38.56 28.4228 39.9862 28.9965C41.9469 29.7994 44.9782 29.5702 47.8307 29.4548C50.1489 29.398 51.8128 28.9397 51.9916 27.6218C52.1114 26.5899 50.921 25.1015 50.2078 24.2418C48.424 22.1229 47.593 21.4924 45.5715 19.5439C44.6796 18.6843 43.55 17.7678 43.55 16.7377C43.491 16.1071 44.0254 15.5353 44.5008 14.9047C46.5813 11.9261 48.6617 9.80724 50.5634 6.7132C51.0978 5.79672 52.3472 3.67781 51.8718 2.64585C51.3374 1.50025 48.3651 1.84301 46.5223 1.84301C44.1452 1.84301 41.055 1.67072 40.4598 2.12896C39.3301 2.87314 38.8547 4.0774 38.3204 5.223C37.1318 7.8588 35.5268 10.5496 33.8628 12.5549C33.2676 13.2422 32.1399 14.6738 31.4857 14.4446L31.4876 14.4465Z" fill="#F3F3F3"/>
</svg>
