<svg width="52" height="52" viewBox="0 0 52 52" fill="none" xmlns="http://www.w3.org/2000/svg">
<g clip-path="url(#clip0_18_92)">
<path fill-rule="evenodd" clip-rule="evenodd" d="M41.1346 36.7148C40.508 38.4886 38.0172 39.9559 36.0308 40.3851C34.671 40.6737 32.8978 40.9021 26.923 38.4262C20.2124 35.6459 10.894 25.7425 10.894 19.1521C10.894 15.7971 12.8284 11.8904 16.211 11.8904C17.8386 11.8904 18.1974 11.9222 18.733 13.2069C19.3596 14.7206 20.8884 18.4499 21.0704 18.8322C21.8218 20.4005 20.306 21.3186 19.2062 22.684C18.8552 23.0949 18.4574 23.5393 18.902 24.3039C19.344 25.0529 20.8728 27.5445 23.1192 29.5445C26.0208 32.1297 28.3738 32.955 29.2162 33.3062C29.8428 33.5662 30.5916 33.5057 31.0492 33.0167C31.629 32.3899 32.3492 31.35 33.0824 30.3253C33.5998 29.5919 34.2576 29.5003 34.9466 29.7604C35.412 29.9216 41.327 32.6686 41.5766 33.1081C41.7612 33.428 41.7612 34.9411 41.1346 36.7148ZM26.0052 0H25.9922C11.6584 0 0 11.6619 0 26C0 31.6853 1.83302 36.9599 4.95042 41.2382L1.71081 50.8993L11.7026 47.7064C15.8132 50.4269 20.7194 52 26.0052 52C40.339 52 52 40.3381 52 26C52 11.6619 40.339 0 26.0052 0Z" fill="#F3F3F3"/>
</g>
<defs>
<clipPath id="clip0_18_92">
<rect width="52" height="52" fill="white"/>
</clipPath>
</defs>
</svg>
